# Blender 4.0.2
# www.blender.org
o DoorFrame
v -0.500000 0.000441 -0.476073
v -0.500000 0.048001 -0.476073
v -0.500000 0.048001 -0.535658
v 0.500000 0.000441 -0.476073
v 0.500000 0.048001 -0.476073
v 0.500000 0.048001 -0.535658
v -0.500000 0.000000 -0.500000
v 0.500000 0.000000 -0.500000
v -0.500000 0.500000 -0.500000
v 0.500000 0.500000 -0.500000
v 0.000000 0.500000 -0.500000
v -0.500000 0.479172 -0.517428
v -0.500000 0.479172 -0.485188
v -0.500000 0.510708 -0.485188
v 0.500000 0.479172 -0.517428
v 0.500000 0.479172 -0.485188
v 0.500000 0.510708 -0.485188
v 0.255900 0.000000 -0.500693
v 0.250000 0.500000 -0.500000
v -0.250000 0.500000 -0.500000
v -0.255901 0.000000 -0.500693
v 0.500000 0.388769 -0.500000
v -0.500000 0.388769 -0.500000
v 0.000000 0.388769 -0.500000
v 0.255900 0.388769 -0.500693
v -0.255901 0.388769 -0.500693
v 0.250000 0.000441 -0.535658
v 0.250000 0.000441 -0.476073
v 0.250000 0.048001 -0.535658
v -0.250000 0.000441 -0.476073
v 0.250000 0.048001 -0.476073
v -0.250000 0.048001 -0.476073
v -0.250000 0.048001 -0.535658
v -0.250000 0.000441 -0.535658
v -0.220252 0.500000 -0.500000
v -0.220252 0.000000 -0.500000
v -0.220252 0.388769 -0.500000
v 0.220481 0.000000 -0.500000
v 0.220481 0.500000 -0.500000
v 0.220481 0.388769 -0.500000
v 0.500000 0.417777 -0.500000
v -0.500000 0.417777 -0.500000
v -0.000005 0.425036 -0.500693
v 0.256342 0.425036 -0.500693
v -0.256230 0.425036 -0.500693
v -0.241304 0.425036 -0.500693
v 0.220481 0.417777 -0.500000
v 0.255900 0.388769 -0.469405
v 0.255900 0.000000 -0.469405
v -0.255901 0.388769 -0.469405
v -0.255901 0.000000 -0.469405
v -0.000005 0.425036 -0.469405
v -0.000005 0.388769 -0.469405
v 0.255900 0.425036 -0.469405
v -0.255901 0.425036 -0.469405
v -0.225451 0.388769 -0.469405
v 0.225684 0.388769 -0.469405
v -0.225451 0.000000 -0.469405
v -0.225451 0.425036 -0.469405
v 0.225684 0.000000 -0.469405
v 0.225684 0.425036 -0.469405
v 0.250000 0.388769 -0.500000
v 0.250000 0.000000 -0.500000
v -0.250000 0.388769 -0.500000
v -0.250000 0.000000 -0.500000
v 0.250000 0.417777 -0.500000
v -0.250000 0.417777 -0.500000
v 0.241548 0.425036 -0.500693
v -0.220252 0.417777 -0.500000
v 0.000000 0.417777 -0.500000
v -0.267590 0.388769 -0.469405
v -0.267590 0.388769 -0.500693
v -0.267590 0.425036 -0.469405
v -0.267590 0.425036 -0.500693
v 0.267352 0.425036 -0.469405
v 0.267352 0.388769 -0.469405
v 0.267352 0.425036 -0.500693
v 0.267352 0.388769 -0.500693
v -0.500000 -0.152384 -0.500000
v -0.250000 -0.152384 -0.500000
v 0.500000 0.000000 -0.500000
v 0.500000 -0.152384 -0.500000
vn -0.0000 -0.0000 1.0000
vn -0.0000 1.0000 -0.0000
vn -0.0000 -1.0000 -0.0000
vn 0.9859 -0.0000 0.1675
vn -1.0000 -0.0000 -0.0000
vn 1.0000 -0.0000 -0.0000
vn -0.9858 -0.0000 0.1677
vt 0.427346 0.999639
vt 0.405350 0.875361
vt 0.427346 0.875361
vt 0.375492 0.999325
vt 0.406465 0.875434
vt 0.406465 0.999325
vt 0.312557 0.979129
vt 0.319933 0.979129
vt 0.319933 0.999662
vt 0.493331 0.999639
vt 0.493331 0.875361
vt 0.499383 0.875434
vt 0.499383 0.999325
vt 0.508010 0.993282
vt 0.501447 0.875067
vt 0.508277 0.875068
vt 0.562402 0.993701
vt 0.614912 0.998716
vt 0.562402 0.998716
vt 0.509837 0.993701
vt 0.502800 0.998716
vt 0.502800 0.993701
vt 0.471336 0.875361
vt 0.468410 0.999325
vt 0.468410 0.875434
vt 0.617169 0.875605
vt 0.623045 0.993439
vt 0.617160 0.993439
vt 0.501712 0.876246
vt 0.508213 0.993427
vt 0.501712 0.993427
vt 0.000000 0.000000
vt 0.305315 0.999551
vt 0.250584 0.999551
vt 0.312643 0.979085
vt 0.501889 0.993547
vt 0.508550 0.875338
vt 0.508673 0.993532
vt 0.500736 0.999591
vt 0.510131 0.999129
vt 0.563464 0.999129
vt 0.616544 0.993297
vt 0.616852 0.999129
vt 0.563464 0.993326
vt 0.623692 0.993297
vt 0.624000 0.999129
vt 0.624000 0.875876
vt 0.509837 0.998716
vt 0.623395 0.993073
vt 0.616749 0.878153
vt 0.623395 0.878153
vt 0.610471 0.995213
vt 0.562627 0.999778
vt 0.562627 0.995213
vt 0.614912 0.993701
vt 0.622005 0.998716
vt 0.514834 0.995213
vt 0.514834 0.999778
vt 0.501712 0.993282
vt 0.508213 0.999394
vt 0.501712 0.999394
vt 0.622005 0.993701
vt 0.623395 0.999156
vt 0.616749 0.993073
vt 0.016026 0.874285
vt 0.000756 0.813054
vt 0.016026 0.813053
vt 0.061836 0.813054
vt 0.061836 0.874285
vt 0.405350 0.999639
vt 0.375492 0.875434
vt 0.250569 0.971885
vt 0.250569 0.874802
vt 0.312557 0.874802
vt 0.312557 0.971885
vt 0.312557 0.999662
vt 0.250569 0.999662
vt 0.250569 0.979129
vt 0.374545 0.979129
vt 0.374545 0.999662
vt 0.501740 0.993282
vt 0.471336 0.999639
vt 0.623055 0.875605
vt 0.508213 0.876246
vt 0.312643 0.971865
vt 0.312643 0.875097
vt 0.374702 0.875097
vt 0.374702 0.971865
vt 0.374702 0.979085
vt 0.374702 0.999551
vt 0.312643 0.999551
vt 0.250584 0.979085
vt 0.305315 0.979085
vt 0.501235 0.875377
vt 0.616852 0.875876
vt 0.610471 0.999778
vt 0.508213 0.993282
vt 0.616749 0.999156
vt 0.000756 0.874285
s 0
f 32/1/1 1/2/1 30/3/1
f 3/4/2 32/5/2 33/6/2
f 67/7/1 69/8/1 35/9/1
f 16/10/3 12/2/3 15/11/3
f 14/4/1 16/12/1 17/13/1
f 37/14/4 58/15/4 36/16/4
f 43/17/2 59/18/2 52/19/2
f 68/20/2 54/21/2 44/22/2
f 5/10/1 28/23/1 4/11/1
f 29/24/2 5/12/2 6/13/2
f 29/24/5 28/25/5 31/25/5
f 32/5/6 34/6/6 33/6/6
f 38/26/7 57/27/7 40/28/7
f 21/29/5 50/30/5 26/31/5
f 21/32/3 58/32/3 51/32/3
f 39/33/1 11/34/1 66/35/1
f 50/36/1 58/37/1 56/38/1
f 55/39/1 56/38/1 59/40/1
f 52/41/1 57/42/1 61/43/1
f 59/40/1 53/44/1 52/41/1
f 61/43/1 48/45/1 54/46/1
f 57/42/1 49/47/1 48/45/1
f 18/32/3 60/32/3 38/32/3
f 48/45/1 75/46/1 54/46/1
f 43/17/2 61/48/2 68/20/2
f 25/49/6 49/50/6 18/51/6
f 55/39/1 71/36/1 50/36/1
f 40/52/3 53/53/3 24/54/3
f 46/55/2 55/56/2 59/18/2
f 37/57/3 53/53/3 56/58/3
f 72/59/5 73/60/5 74/61/5
f 45/62/2 73/56/2 55/56/2
f 50/30/3 72/31/3 26/31/3
f 77/63/6 76/64/6 78/49/6
f 25/49/3 76/64/3 48/64/3
f 44/22/2 75/21/2 77/22/2
f 65/65/1 79/66/1 80/67/1
f 65/65/1 82/68/1 81/69/1
f 32/1/1 2/70/1 1/2/1
f 3/4/2 2/71/2 32/5/2
f 23/72/1 7/73/1 65/74/1
f 23/72/1 65/74/1 64/75/1
f 20/76/1 9/77/1 42/78/1
f 42/78/1 23/72/1 64/75/1
f 42/78/1 64/75/1 67/7/1
f 35/9/1 20/76/1 42/78/1
f 70/79/1 11/80/1 35/9/1
f 69/8/1 70/79/1 35/9/1
f 35/9/1 42/78/1 67/7/1
f 16/10/3 13/70/3 12/2/3
f 14/4/1 13/71/1 16/12/1
f 37/14/4 56/81/4 58/15/4
f 43/17/2 46/55/2 59/18/2
f 68/20/2 61/48/2 54/21/2
f 5/10/1 31/82/1 28/23/1
f 29/24/2 31/25/2 5/12/2
f 29/24/5 27/24/5 28/25/5
f 32/5/6 30/5/6 34/6/6
f 38/26/7 60/83/7 57/27/7
f 21/29/5 51/84/5 50/30/5
f 21/32/3 36/32/3 58/32/3
f 62/85/1 63/86/1 8/87/1
f 62/85/1 8/87/1 22/88/1
f 66/35/1 62/85/1 22/88/1
f 41/89/1 10/90/1 19/91/1
f 66/35/1 22/88/1 41/89/1
f 11/34/1 70/92/1 47/93/1
f 66/35/1 41/89/1 19/91/1
f 11/34/1 47/93/1 66/35/1
f 66/35/1 19/91/1 39/33/1
f 50/36/1 51/94/1 58/37/1
f 55/39/1 50/36/1 56/38/1
f 52/41/1 53/44/1 57/42/1
f 59/40/1 56/38/1 53/44/1
f 61/43/1 57/42/1 48/45/1
f 57/42/1 60/95/1 49/47/1
f 18/32/3 49/32/3 60/32/3
f 48/45/1 76/45/1 75/46/1
f 43/17/2 52/19/2 61/48/2
f 25/49/6 48/64/6 49/50/6
f 55/39/1 73/39/1 71/36/1
f 40/52/3 57/96/3 53/53/3
f 46/55/2 45/62/2 55/56/2
f 37/57/3 24/54/3 53/53/3
f 72/59/5 71/97/5 73/60/5
f 45/62/2 74/62/2 73/56/2
f 50/30/3 71/30/3 72/31/3
f 77/63/6 75/98/6 76/64/6
f 25/49/3 78/49/3 76/64/3
f 44/22/2 54/21/2 75/21/2
f 65/65/1 7/99/1 79/66/1
f 65/65/1 80/67/1 82/68/1
